<svg width="169" height="33" viewBox="0 0 169 33" fill="none" xmlns="http://www.w3.org/2000/svg">
<path d="M68.2139 16.4909L76.1283 31.3351H83.8692L68.2139 1.931L52.5587 31.3351H60.3429L68.2139 16.4909Z" fill="#882832"/>
<path d="M42.5194 24.4486L42.5411 1.88727H35.6892V31.3351H48.8942L52.5587 24.4486H42.5194Z" fill="#882832"/>
<path d="M16.4562 0.837906C13.359 0.833581 10.3301 1.75563 7.75274 3.48739C5.1754 5.21915 3.16545 7.68279 1.97722 10.5666C0.788987 13.4504 0.475866 16.6247 1.07748 19.688C1.67909 22.7513 3.16839 25.5658 5.35695 27.7755C7.54551 29.9851 10.335 31.4906 13.3724 32.1014C16.4098 32.7122 19.5586 32.4009 22.4205 31.2069C25.2824 30.0129 27.7287 27.9898 29.4499 25.3936C31.1711 22.7974 32.0898 19.7449 32.0898 16.6221C32.0898 12.4397 30.4434 8.4282 27.5121 5.46871C24.5809 2.50923 20.6045 0.843699 16.4562 0.837906ZM16.4562 25.1263C14.7871 25.1307 13.1542 24.6356 11.7642 23.7038C10.3743 22.7719 9.28983 21.4453 8.64809 19.8917C8.00636 18.3381 7.83623 16.6275 8.15923 14.9765C8.48224 13.3254 9.28385 11.808 10.4626 10.6165C11.6414 9.42495 13.1442 8.61283 14.781 8.28292C16.4178 7.953 18.1148 8.12013 19.6574 8.76315C21.1999 9.40617 22.5185 10.4962 23.4463 11.8951C24.374 13.2941 24.8693 14.9392 24.8693 16.6221C24.8636 18.8758 23.9731 21.0355 22.3925 22.6291C20.8119 24.2227 18.6698 25.1206 16.4345 25.1263H16.4562Z" fill="#882832"/>
<path d="M105.13 3.92074C103.132 3.92074 101.518 4.42427 100.287 5.43134C99.056 6.42242 98.4406 7.70922 98.4406 9.29175C98.4406 10.8583 99.0161 12.0732 100.167 12.9364C101.318 13.7996 103.676 14.8226 107.24 16.0055C110.805 17.1884 113.307 18.4193 114.745 19.6981C116.2 20.9609 116.927 22.8312 116.927 25.3089C116.927 27.7866 116.024 29.6648 114.218 30.9436C112.412 32.2065 110.23 32.8379 107.672 32.8379C102.493 32.8379 98.1769 31.2873 94.7241 28.1862L95.8031 26.5078C99.08 29.3851 102.908 30.8238 107.288 30.8238C112.196 30.8238 114.65 28.9455 114.65 25.189C114.65 23.3507 114.05 21.952 112.851 20.9929C111.668 20.0178 109.694 19.0747 106.929 18.1635C104.179 17.2524 102.333 16.605 101.39 16.2213C100.447 15.8217 99.5116 15.2942 98.5845 14.6388C97.6733 13.9834 97.0419 13.2321 96.6902 12.3849C96.3546 11.5217 96.1867 10.4507 96.1867 9.17187C96.1867 7.04584 97.0019 5.31145 98.6324 3.9687C100.279 2.62594 102.445 1.95457 105.13 1.95457C108.983 1.97055 112.516 2.79379 115.729 4.42427L115.009 6.17465C112.004 4.67204 108.711 3.92074 105.13 3.92074Z" fill="#882832"/>
<path d="M140.078 32.4063H121.927V30.4881H130.655V5.19156C127.938 6.40643 125.124 7.34157 122.215 7.99696L121.711 6.53432C125.308 5.44732 128.457 4.08859 131.159 2.4581H132.813V30.4881H140.078V32.4063Z" fill="#882832"/>
<path d="M168.552 32.4063H165.819L156.468 19.2905C156.068 18.731 155.828 18.3713 155.748 18.2115C155.652 18.3713 155.405 18.731 155.005 19.2905L145.63 32.4063H142.92L153.974 16.9886L143.328 2.4581H146.061L155.005 14.5908C155.293 15.0224 155.541 15.3981 155.748 15.7178C155.94 15.3981 156.18 15.0224 156.468 14.5908L165.411 2.4581H168.121L157.451 16.9886L168.552 32.4063Z" fill="#882832"/>
</svg>
